# xmcd CD database file
#
# Track frame offsets:
#	183
#	10488
#	30880
#	47555
#	68780
#	76770
#	90343
#	115705
#	142443
#	158795
#	168925
#	184693
#	207020
#
# Disc length: 2994 seconds
#
# Revision: 0
# Processed by: cddbd v1.5.2PL0 Copyright (c) Steve Scherf et al.
# Submitted via: CDex 1.51
#
DISCID=9a0bb00d
DTITLE=Daniel Humair-André Jaume - Pépites
DYEAR=1987
DGENRE=Jazz
TTITLE0=Grenade
TTITLE1=Noir D'Autard
TTITLE2=Out Of Sorcellerie
TTITLE3=Zazize
TTITLE4=Les Oiseaux Sont Marteaux
TTITLE5=Opalescence
TTITLE6=Pic Et Fouet
TTITLE7=Naïma
TTITLE8=Teddy Bear
TTITLE9=Bye Bye Buddy
TTITLE10=Dinky Toys
TTITLE11=Mode Pour Mi
TTITLE12=African Bear
EXTD=YEAR: 1987
EXTT0=
EXTT1=
EXTT2=
EXTT3=
EXTT4=
EXTT5=
EXTT6=
EXTT7=
EXTT8=
EXTT9=
EXTT10=
EXTT11=
EXTT12=
PLAYORDER=
